<svg width="1437" height="859" xmlns="http://www.w3.org/2000/svg" xmlns:xlink="http://www.w3.org/1999/xlink" xml:space="preserve" overflow="hidden"><g transform="translate(-282 -1426)"><path d="M1077.5 1535.84C1077.5 1477.11 1125.11 1429.5 1183.84 1429.5L1609.16 1429.5C1667.89 1429.5 1715.5 1477.11 1715.5 1535.84L1715.5 2175.16C1715.5 2233.89 1667.89 2281.5 1609.16 2281.5L1183.84 2281.5C1125.11 2281.5 1077.5 2233.89 1077.5 2175.16Z" stroke="#042433" stroke-width="6.875" stroke-miterlimit="8" fill="#FFFFFF" fill-rule="evenodd"/><rect x="1166.5" y="1470.5" width="460" height="51.9999" stroke="#042433" stroke-width="6.875" stroke-miterlimit="8" fill="#D9F2D0"/><rect x="1166.5" y="1563.5" width="404" height="51.0002" stroke="#042433" stroke-width="6.875" stroke-miterlimit="8" fill="#D9F2D0"/><rect x="1166.5" y="1683.5" width="460" height="52.0002" stroke="#042433" stroke-width="6.875" stroke-miterlimit="8" fill="#F2CFEE"/><rect x="1166.5" y="1776.5" width="404" height="51.9999" stroke="#042433" stroke-width="6.875" stroke-miterlimit="8" fill="#F2CFEE"/><rect x="1166.5" y="1895.5" width="460" height="51.0002" stroke="#042433" stroke-width="6.875" stroke-miterlimit="8" fill="#FBE3D6"/><rect x="1166.5" y="1987.5" width="404" height="51.9999" stroke="#042433" stroke-width="6.875" stroke-miterlimit="8" fill="#FBE3D6"/><rect x="1166.5" y="2080.5" width="404" height="52.0002" stroke="#042433" stroke-width="6.875" stroke-miterlimit="8" fill="#FBE3D6"/><rect x="1166.5" y="2173.5" width="460" height="52" stroke="#042433" stroke-width="6.875" stroke-miterlimit="8" fill="#DCEAF7"/><path d="M285.5 1535.84C285.5 1477.11 333.108 1429.5 391.835 1429.5L817.165 1429.5C875.892 1429.5 923.5 1477.11 923.5 1535.84L923.5 2175.16C923.5 2233.89 875.892 2281.5 817.165 2281.5L391.835 2281.5C333.108 2281.5 285.5 2233.89 285.5 2175.16Z" stroke="#042433" stroke-width="6.875" stroke-miterlimit="8" fill="#FFFFFF" fill-rule="evenodd"/><rect x="374.5" y="1470.5" width="460" height="51.9999" stroke="#042433" stroke-width="6.875" stroke-miterlimit="8"/><rect x="374.5" y="1563.5" width="405" height="51.0002" stroke="#042433" stroke-width="6.875" stroke-miterlimit="8"/><rect x="374.5" y="1683.5" width="460" height="52.0002" stroke="#042433" stroke-width="6.875" stroke-miterlimit="8"/><rect x="374.5" y="1776.5" width="405" height="51.9999" stroke="#042433" stroke-width="6.875" stroke-miterlimit="8"/><rect x="374.5" y="1895.5" width="460" height="51.0002" stroke="#042433" stroke-width="6.875" stroke-miterlimit="8"/><rect x="374.5" y="1987.5" width="405" height="51.9999" stroke="#042433" stroke-width="6.875" stroke-miterlimit="8"/><rect x="374.5" y="2080.5" width="405" height="52.0002" stroke="#042433" stroke-width="6.875" stroke-miterlimit="8"/><rect x="374.5" y="2173.5" width="460" height="52" stroke="#042433" stroke-width="6.875" stroke-miterlimit="8"/></g></svg>